<svg width="1940" height="343" viewBox="0 0 1940 343" fill="none" xmlns="http://www.w3.org/2000/svg">
<g clip-path="url(#clip0_443_857)">
<rect width="1940" height="343" fill="white"/>
<rect x="-3.8999" width="80.3148" height="20.5514" rx="3" fill="#E14646" fill-opacity="0.3"/>
<path d="M3.75297 14V3.81818H7.19332C7.98877 3.81818 8.64171 3.95407 9.15212 4.22585C9.66254 4.49432 10.0404 4.86387 10.2856 5.33452C10.5309 5.80516 10.6535 6.34044 10.6535 6.94034C10.6535 7.54025 10.5309 8.07221 10.2856 8.53622C10.0404 9.00024 9.6642 9.36482 9.15709 9.62997C8.64999 9.89181 8.00203 10.0227 7.2132 10.0227H4.42911V8.90909H7.17343C7.71699 8.90909 8.15449 8.82955 8.48593 8.67045C8.82068 8.51136 9.06263 8.28598 9.21178 7.99432C9.36424 7.69934 9.44047 7.34801 9.44047 6.94034C9.44047 6.53267 9.36424 6.17637 9.21178 5.87145C9.05932 5.56652 8.81571 5.3312 8.48096 5.16548C8.1462 4.99645 7.70373 4.91193 7.15354 4.91193H4.98593V14H3.75297ZM8.54559 9.42614L11.0513 14H9.61945L7.15354 9.42614H8.54559ZM15.6686 14.1591C14.9328 14.1591 14.2981 13.9967 13.7645 13.6719C13.2342 13.3438 12.8249 12.8864 12.5365 12.2997C12.2515 11.7098 12.109 11.0237 12.109 10.2415C12.109 9.45928 12.2515 8.76989 12.5365 8.1733C12.8249 7.57339 13.2259 7.10606 13.7397 6.77131C14.2567 6.43324 14.8599 6.2642 15.5493 6.2642C15.947 6.2642 16.3398 6.33049 16.7276 6.46307C17.1154 6.59564 17.4684 6.81108 17.7865 7.10938C18.1047 7.40436 18.3583 7.79545 18.5472 8.28267C18.7361 8.76989 18.8306 9.36979 18.8306 10.0824V10.5795H12.9442V9.56534H17.6374C17.6374 9.13447 17.5512 8.75 17.3789 8.41193C17.2098 8.07386 16.9679 7.80705 16.653 7.61151C16.3415 7.41596 15.9736 7.31818 15.5493 7.31818C15.082 7.31818 14.6776 7.43419 14.3362 7.66619C13.9982 7.89489 13.738 8.19318 13.5557 8.56108C13.3734 8.92898 13.2823 9.32339 13.2823 9.74432V10.4205C13.2823 10.9972 13.3817 11.486 13.5806 11.8871C13.7827 12.2848 14.0628 12.5881 14.4208 12.7969C14.7787 13.0024 15.1947 13.1051 15.6686 13.1051C15.9769 13.1051 16.2553 13.062 16.5039 12.9759C16.7558 12.8864 16.9728 12.7538 17.1551 12.5781C17.3374 12.3991 17.4783 12.1771 17.5777 11.9119L18.7112 12.2301C18.5919 12.6146 18.3914 12.9527 18.1097 13.2443C17.828 13.5327 17.48 13.758 17.0657 13.9205C16.6514 14.0795 16.1857 14.1591 15.6686 14.1591ZM23.4989 14.1591C22.8625 14.1591 22.3007 13.9983 21.8135 13.6768C21.3263 13.352 20.9451 12.8946 20.6701 12.3047C20.395 11.7114 20.2574 11.0104 20.2574 10.2017C20.2574 9.39962 20.395 8.7036 20.6701 8.11364C20.9451 7.52367 21.328 7.06794 21.8185 6.74645C22.309 6.42495 22.8758 6.2642 23.5188 6.2642C24.0159 6.2642 24.4087 6.34706 24.697 6.51278C24.9887 6.67519 25.2108 6.8608 25.3632 7.0696C25.519 7.27509 25.64 7.44413 25.7262 7.5767H25.8256V3.81818H26.9989V14H25.8654V12.8267H25.7262C25.64 12.9659 25.5174 13.1416 25.3583 13.3537C25.1992 13.5625 24.9721 13.7498 24.6772 13.9155C24.3822 14.0779 23.9894 14.1591 23.4989 14.1591ZM23.658 13.1051C24.1286 13.1051 24.5264 12.9825 24.8512 12.7372C25.176 12.4886 25.4229 12.1456 25.5919 11.7081C25.761 11.2673 25.8455 10.7585 25.8455 10.1818C25.8455 9.61174 25.7626 9.11293 25.5969 8.68537C25.4312 8.2545 25.1859 7.91974 24.8611 7.68111C24.5363 7.43916 24.1353 7.31818 23.658 7.31818C23.1608 7.31818 22.7465 7.44579 22.4151 7.70099C22.087 7.95289 21.84 8.29593 21.6743 8.73011C21.5119 9.16098 21.4307 9.64489 21.4307 10.1818C21.4307 10.7254 21.5136 11.2192 21.6793 11.6634C21.8483 12.1042 22.0969 12.4555 22.425 12.7173C22.7565 12.9759 23.1675 13.1051 23.658 13.1051ZM36.5692 6.36364V7.35795H32.6118V6.36364H36.5692ZM33.7652 4.53409H34.9385V11.8125C34.9385 12.1439 34.9866 12.3925 35.0827 12.5582C35.1821 12.7206 35.3081 12.83 35.4605 12.8864C35.6163 12.9394 35.7804 12.9659 35.9527 12.9659C36.082 12.9659 36.188 12.9593 36.2709 12.946C36.3538 12.9295 36.4201 12.9162 36.4698 12.9062L36.7084 13.9602C36.6289 13.9901 36.5178 14.0199 36.3753 14.0497C36.2328 14.0829 36.0522 14.0994 35.8334 14.0994C35.502 14.0994 35.1772 14.0282 34.859 13.8857C34.5441 13.7431 34.2823 13.526 34.0735 13.2344C33.868 12.9427 33.7652 12.5748 33.7652 12.1307V4.53409ZM40.5813 14.179C40.0974 14.179 39.6582 14.0878 39.2638 13.9055C38.8694 13.7199 38.5562 13.4531 38.3242 13.1051C38.0922 12.7538 37.9762 12.3295 37.9762 11.8324C37.9762 11.3949 38.0623 11.0402 38.2347 10.7685C38.407 10.4934 38.6374 10.2779 38.9257 10.1222C39.2141 9.96638 39.5323 9.85038 39.8803 9.77415C40.2316 9.6946 40.5846 9.63163 40.9392 9.58523C41.4032 9.52557 41.7794 9.48082 42.0678 9.45099C42.3594 9.41785 42.5716 9.36316 42.7041 9.28693C42.84 9.2107 42.908 9.07812 42.908 8.8892V8.84943C42.908 8.3589 42.7737 7.97775 42.5053 7.70597C42.2401 7.43419 41.8374 7.2983 41.2972 7.2983C40.7371 7.2983 40.2979 7.42093 39.9797 7.66619C39.6615 7.91146 39.4378 8.1733 39.3085 8.4517L38.1949 8.05398C38.3938 7.58996 38.6589 7.22869 38.9904 6.97017C39.3251 6.70833 39.6897 6.52604 40.0841 6.4233C40.4818 6.31723 40.8729 6.2642 41.2574 6.2642C41.5027 6.2642 41.7844 6.29403 42.1026 6.35369C42.4241 6.41004 42.734 6.5277 43.0323 6.70668C43.3339 6.88565 43.5841 7.15578 43.783 7.51705C43.9818 7.87831 44.0813 8.36222 44.0813 8.96875V14H42.908V12.9659H42.8483C42.7688 13.1316 42.6362 13.3089 42.4506 13.4979C42.265 13.6868 42.0181 13.8475 41.7098 13.9801C41.4016 14.1127 41.0254 14.179 40.5813 14.179ZM40.7603 13.125C41.2243 13.125 41.6154 13.0339 41.9335 12.8516C42.255 12.6693 42.497 12.4339 42.6594 12.1456C42.8251 11.8572 42.908 11.554 42.908 11.2358V10.1619C42.8583 10.2216 42.7489 10.2763 42.5799 10.326C42.4141 10.3724 42.2219 10.4138 42.0032 10.4503C41.7877 10.4834 41.5773 10.5133 41.3718 10.5398C41.1696 10.563 41.0055 10.5829 40.8796 10.5994C40.5746 10.6392 40.2896 10.7038 40.0245 10.7933C39.7626 10.8795 39.5505 11.0104 39.3881 11.1861C39.229 11.3584 39.1495 11.5937 39.1495 11.892C39.1495 12.2997 39.3003 12.608 39.6019 12.8168C39.9068 13.0223 40.2929 13.125 40.7603 13.125ZM49.3052 17.0227C48.7384 17.0227 48.2512 16.9498 47.8435 16.804C47.4359 16.6615 47.0961 16.4725 46.8244 16.2372C46.5559 16.0052 46.3421 15.7566 46.183 15.4915L47.1177 14.8352C47.2237 14.9744 47.358 15.1335 47.5204 15.3125C47.6828 15.4948 47.9048 15.6522 48.1866 15.7848C48.4716 15.9207 48.8445 15.9886 49.3052 15.9886C49.9217 15.9886 50.4304 15.8395 50.8315 15.5412C51.2325 15.2429 51.433 14.7756 51.433 14.1392V12.5881H51.3336C51.2474 12.7273 51.1248 12.8996 50.9657 13.1051C50.8099 13.3073 50.5845 13.4879 50.2896 13.647C49.9979 13.8028 49.6035 13.8807 49.1063 13.8807C48.4898 13.8807 47.9363 13.7348 47.4458 13.4432C46.9586 13.1515 46.5725 12.7273 46.2874 12.1705C46.0057 11.6136 45.8648 10.9375 45.8648 10.142C45.8648 9.35985 46.0024 8.67874 46.2775 8.09872C46.5526 7.51539 46.9354 7.06463 47.4259 6.74645C47.9164 6.42495 48.4832 6.2642 49.1262 6.2642C49.6234 6.2642 50.0178 6.34706 50.3094 6.51278C50.6044 6.67519 50.8298 6.8608 50.9856 7.0696C51.1447 7.27509 51.2673 7.44413 51.3535 7.5767H51.4728V6.36364H52.6063V14.2188C52.6063 14.875 52.4572 15.4086 52.1589 15.8196C51.8639 16.2339 51.4662 16.5372 50.9657 16.7294C50.4685 16.925 49.915 17.0227 49.3052 17.0227ZM49.2654 12.8267C49.736 12.8267 50.1338 12.719 50.4586 12.5036C50.7834 12.2881 51.0303 11.9782 51.1994 11.5739C51.3684 11.1695 51.4529 10.6856 51.4529 10.1222C51.4529 9.57197 51.37 9.08641 51.2043 8.66548C51.0386 8.24455 50.7933 7.91477 50.4685 7.67614C50.1437 7.4375 49.7427 7.31818 49.2654 7.31818C48.7682 7.31818 48.3539 7.44413 48.0225 7.69602C47.6944 7.94792 47.4475 8.28598 47.2817 8.71023C47.1193 9.13447 47.0381 9.60511 47.0381 10.1222C47.0381 10.6525 47.121 11.1214 47.2867 11.5291C47.4557 11.9335 47.7043 12.2517 48.0324 12.4837C48.3639 12.7124 48.7749 12.8267 49.2654 12.8267Z" fill="#37352F"/>
<path d="M-4 0H1944V343H-4V0Z" fill="#CCFFE2"/>
<path fill-rule="evenodd" clip-rule="evenodd" d="M1943.55 237.166V343H475.379C535.532 293.689 599.915 248.214 668.419 207.174C1082.63 -40.9782 1540.57 29.3675 1943.55 237.166Z" fill="#FFECEA"/>
<path fill-rule="evenodd" clip-rule="evenodd" d="M1373.87 169.08C1373.93 113.585 1408.92 58.5252 1467.21 46.2886C1518.96 35.4249 1554.8 83.747 1584.16 124.933C1611.76 163.654 1640.07 210.579 1611.16 248.223C1579.64 289.281 1518.29 294.69 1466.96 277.572C1415.17 260.296 1373.82 220.063 1373.87 169.08Z" fill="#0018A4"/>
<path fill-rule="evenodd" clip-rule="evenodd" d="M135.668 64.0355C166.613 63.0843 197.932 81.711 205.784 114.146C212.755 142.942 186.443 163.876 163.996 181.054C142.892 197.204 117.226 213.893 95.7253 198.369C72.2753 181.438 68.1762 147.165 76.8156 118.11C85.5343 88.7876 107.239 64.9093 135.668 64.0355Z" fill="white"/>
<rect x="-4" width="1944" height="100" fill="#0018A4"/>
<path d="M-61.4021 44.534V33.3H-60.7461V44.534H-49.922V33.3H-49.266V44.534H-44.346V33.3H-43.69V62H-44.346V50.766H-49.266V62H-49.922V50.766H-60.7461V62H-61.4021V50.766H-66.3221V62H-66.9781V33.3H-66.3221V44.534H-61.4021ZM-49.922 45.19H-60.7461V50.11H-49.922V45.19ZM-61.4021 50.11V45.19H-66.3221V50.11H-61.4021ZM-44.346 50.11V45.19H-49.266V50.11H-44.346ZM-23.4956 42.115V60.155C-20.7486 58.474 -18.5756 55.071 -18.5756 51.135C-18.5756 47.199 -20.7486 43.796 -23.4956 42.115ZM-29.2766 39.778C-27.4316 39.778 -25.7096 40.229 -24.1516 41.008V40.27H-23.4956V41.377C-21.1996 42.648 -19.4366 44.944 -18.5756 47.322V40.27H-17.9196V62H-18.5756V54.907C-19.3956 57.244 -21.1996 59.663 -23.4956 60.934V62H-24.1516V61.262C-25.7096 62.041 -27.4316 62.492 -29.2766 62.492C-35.5496 62.492 -40.6336 57.408 -40.6336 51.135C-40.6336 44.862 -35.5496 39.778 -29.2766 39.778ZM-29.2766 61.836C-27.4316 61.836 -25.6686 61.385 -24.1516 60.565V53.841C-25.1356 55.645 -27.0626 56.916 -29.2766 56.916C-32.4746 56.916 -35.0576 54.333 -35.0576 51.135C-35.0576 47.937 -32.4746 45.354 -29.2766 45.354C-27.0626 45.354 -25.1356 46.625 -24.1516 48.47V41.746C-25.6686 40.926 -27.4316 40.434 -29.2766 40.434C-35.1806 40.434 -39.9776 45.231 -39.9776 51.135C-39.9776 57.039 -35.1806 61.836 -29.2766 61.836ZM-29.2766 56.26C-26.4066 56.26 -24.1516 53.964 -24.1516 51.135C-24.1516 48.306 -26.4066 46.01 -29.2766 46.01C-32.1056 46.01 -34.4016 48.306 -34.4016 51.135C-34.4016 53.964 -32.1056 56.26 -29.2766 56.26ZM-8.16259 60.155V42.115C-10.9096 43.796 -13.0826 47.199 -13.0826 51.135C-13.0826 55.071 -10.9096 58.474 -8.16259 60.155ZM-2.38159 62.492C-4.22659 62.492 -5.94859 62.041 -7.50659 61.262V71.02H-8.16259V60.893C-10.4586 59.622 -12.2626 57.285 -13.0826 54.948V71.02H-13.7386V40.27H-13.0826V47.363C-12.2626 44.985 -10.4586 42.607 -8.16259 41.336V40.27H-7.50659V41.008C-5.94859 40.229 -4.22659 39.778 -2.38159 39.778C3.89141 39.778 8.97541 44.862 8.97541 51.135C8.97541 57.408 3.89141 62.492 -2.38159 62.492ZM-2.38159 56.916C-4.59559 56.916 -6.52259 55.645 -7.50659 53.8V60.524C-5.98959 61.344 -4.22659 61.836 -2.38159 61.836C3.52241 61.836 8.31941 57.039 8.31941 51.135C8.31941 45.231 3.52241 40.434 -2.38159 40.434C-4.22659 40.434 -5.98959 40.885 -7.50659 41.705V48.429C-6.52259 46.625 -4.59559 45.354 -2.38159 45.354C0.816411 45.354 3.39941 47.937 3.39941 51.135C3.39941 54.333 0.816411 56.916 -2.38159 56.916ZM-2.38159 46.01C-5.25159 46.01 -7.50659 48.306 -7.50659 51.135C-7.50659 53.964 -5.25159 56.26 -2.38159 56.26C0.447411 56.26 2.74341 53.964 2.74341 51.135C2.74341 48.306 0.447411 46.01 -2.38159 46.01ZM17.5024 60.155V42.115C14.7554 43.796 12.5824 47.199 12.5824 51.135C12.5824 55.071 14.7554 58.474 17.5024 60.155ZM23.2834 62.492C21.4385 62.492 19.7164 62.041 18.1584 61.262V71.02H17.5024V60.893C15.2064 59.622 13.4024 57.285 12.5824 54.948V71.02H11.9264V40.27H12.5824V47.363C13.4024 44.985 15.2064 42.607 17.5024 41.336V40.27H18.1584V41.008C19.7164 40.229 21.4385 39.778 23.2834 39.778C29.5565 39.778 34.6405 44.862 34.6405 51.135C34.6405 57.408 29.5565 62.492 23.2834 62.492ZM23.2834 56.916C21.0694 56.916 19.1424 55.645 18.1584 53.8V60.524C19.6754 61.344 21.4385 61.836 23.2834 61.836C29.1875 61.836 33.9845 57.039 33.9845 51.135C33.9845 45.231 29.1875 40.434 23.2834 40.434C21.4385 40.434 19.6754 40.885 18.1584 41.705V48.429C19.1424 46.625 21.0694 45.354 23.2834 45.354C26.4814 45.354 29.0644 47.937 29.0644 51.135C29.0644 54.333 26.4814 56.916 23.2834 56.916ZM23.2834 46.01C20.4134 46.01 18.1584 48.306 18.1584 51.135C18.1584 53.964 20.4134 56.26 23.2834 56.26C26.1124 56.26 28.4084 53.964 28.4084 51.135C28.4084 48.306 26.1124 46.01 23.2834 46.01ZM58.2071 40.27L44.0211 71.02H43.3241L45.8661 65.526L42.9961 59.376L37.6251 71.02H36.9281L42.6681 58.597L34.0991 40.27H34.7961L42.9961 57.859L45.8251 51.75L40.4951 40.27H41.1921L46.1941 50.971L51.1141 40.27H51.8111L46.5221 51.709L49.3921 57.859L57.5101 40.27H58.2071ZM46.2351 64.747L49.0641 58.638L46.1941 52.488L43.3651 58.638L46.2351 64.747ZM72.371 33.956H66.508V33.3H84.466V33.956H78.603V38.876H84.466V39.532H78.603V62H77.947V39.532H73.027V62H72.371V39.532H66.508V38.876H72.371V33.956ZM77.947 33.956H73.027V38.876H77.947V33.956ZM86.9597 62V31.25H87.6157V46.461C88.5177 44.124 90.2807 42.197 92.5357 41.09V31.25H93.1917V40.762C94.3397 40.311 95.5697 40.065 96.8817 40.065C102.335 40.065 106.804 44.534 106.804 49.987V62H106.148V49.987C106.148 44.903 101.966 40.721 96.8817 40.721C95.5697 40.721 94.3397 41.008 93.1917 41.5V47.691C93.9707 46.461 95.3237 45.641 96.8817 45.641C99.2597 45.641 101.228 47.609 101.228 49.987V62H100.572V49.987C100.572 47.978 98.8907 46.297 96.8817 46.297C94.8727 46.297 93.1917 47.978 93.1917 49.987V62H92.5357V41.828C89.6247 43.386 87.6157 46.461 87.6157 49.987V62H86.9597ZM120.79 62.492C114.517 62.492 109.433 57.408 109.433 51.135C109.433 44.862 114.517 39.778 120.79 39.778C127.063 39.778 132.147 44.862 132.147 51.135C132.147 57.408 127.063 62.492 120.79 62.492ZM120.79 61.836C126.694 61.836 131.491 57.039 131.491 51.135C131.491 45.231 126.694 40.434 120.79 40.434C114.886 40.434 110.089 45.231 110.089 51.135C110.089 57.039 114.886 61.836 120.79 61.836ZM120.79 56.916C117.592 56.916 115.009 54.333 115.009 51.135C115.009 47.937 117.592 45.354 120.79 45.354C123.988 45.354 126.571 47.937 126.571 51.135C126.571 54.333 123.988 56.916 120.79 56.916ZM120.79 56.26C123.619 56.26 125.915 53.964 125.915 51.135C125.915 48.306 123.619 46.01 120.79 46.01C117.961 46.01 115.665 48.306 115.665 51.135C115.665 53.964 117.961 56.26 120.79 56.26ZM154.603 40.27V62H153.947V55.809C153.045 58.146 151.282 60.073 149.027 61.18V62H148.371V61.508C147.223 61.959 145.993 62.205 144.681 62.205C139.228 62.205 134.759 57.736 134.759 52.283V40.27H135.415V52.283C135.415 57.367 139.597 61.549 144.681 61.549C145.993 61.549 147.223 61.262 148.371 60.77V54.579C147.592 55.809 146.239 56.629 144.681 56.629C142.303 56.629 140.335 54.661 140.335 52.283V40.27H140.991V52.283C140.991 54.292 142.672 55.973 144.681 55.973C146.69 55.973 148.371 54.292 148.371 52.283V40.27H149.027V60.442C151.938 58.884 153.947 55.809 153.947 52.283V40.27H154.603ZM157.601 51.135C157.601 44.862 162.685 39.778 168.958 39.778C170.803 39.778 172.525 40.229 174.083 41.008V40.27H174.739V41.377C177.035 42.648 178.798 44.944 179.659 47.322V40.27H180.315V60.155C180.315 66.428 175.272 71.512 168.958 71.512C165.063 71.512 161.619 69.503 159.528 66.51L160.102 66.182C162.07 69.011 165.309 70.856 168.958 70.856C174.944 70.856 179.659 66.1 179.659 60.155V54.907C178.839 57.285 176.994 59.663 174.657 60.934C174.247 63.722 171.91 65.936 168.958 65.936C167.113 65.936 165.432 65.034 164.366 63.722L164.94 63.394C165.842 64.501 167.359 65.28 168.958 65.28C171.418 65.28 173.427 63.599 173.96 61.344C172.443 62.041 170.721 62.492 168.958 62.492C162.685 62.492 157.601 57.408 157.601 51.135ZM158.257 51.135C158.257 57.039 163.054 61.836 168.958 61.836C170.803 61.836 172.525 61.385 174.042 60.565C174.083 60.278 174.083 59.745 174.083 59.212V53.841C173.099 55.645 171.172 56.916 168.958 56.916C165.76 56.916 163.177 54.333 163.177 51.135C163.177 47.937 165.76 45.354 168.958 45.354C171.172 45.354 173.099 46.625 174.083 48.47V41.746C172.566 40.926 170.803 40.434 168.958 40.434C163.054 40.434 158.257 45.231 158.257 51.135ZM163.833 51.135C163.833 53.964 166.129 56.26 168.958 56.26C171.828 56.26 174.083 53.964 174.083 51.135C174.083 48.306 171.828 46.01 168.958 46.01C166.129 46.01 163.833 48.306 163.833 51.135ZM174.739 42.115V60.155C177.486 58.474 179.659 55.071 179.659 51.135C179.659 47.199 177.486 43.796 174.739 42.115ZM184.455 62V31.25H185.111V46.461C186.013 44.124 187.776 42.197 190.031 41.09V31.25H190.687V40.762C191.835 40.311 193.065 40.065 194.377 40.065C199.83 40.065 204.299 44.534 204.299 49.987V62H203.643V49.987C203.643 44.903 199.461 40.721 194.377 40.721C193.065 40.721 191.835 41.008 190.687 41.5V47.691C191.466 46.461 192.819 45.641 194.377 45.641C196.755 45.641 198.723 47.609 198.723 49.987V62H198.067V49.987C198.067 47.978 196.386 46.297 194.377 46.297C192.368 46.297 190.687 47.978 190.687 49.987V62H190.031V41.828C187.12 43.386 185.111 46.461 185.111 49.987V62H184.455ZM209.808 40.926H206.569V40.27H209.808V33.3H210.464V40.27H215.384V33.3H216.04V40.27H219.279V40.926H216.04V45.846H219.279V46.502H216.04V62H215.384V46.502H210.464V62H209.808V46.502H206.569V45.846H209.808V40.926ZM215.384 40.926H210.464V45.846H215.384V40.926ZM221.268 46.953C221.268 42.976 224.466 39.778 228.443 39.778C231.395 39.778 233.937 41.582 235.044 44.124L234.429 44.411C233.445 42.074 231.108 40.434 228.443 40.434C224.835 40.434 221.924 43.345 221.924 46.953C221.924 50.028 224.015 52.57 226.885 53.308L228.689 53.759C229.386 53.923 229.878 54.579 229.878 55.317C229.878 56.219 229.181 56.916 228.279 56.916C227.582 56.916 227.008 56.506 226.762 55.85L227.377 55.604C227.5 55.973 227.828 56.26 228.279 56.26C228.812 56.26 229.222 55.85 229.222 55.317C229.222 54.866 228.976 54.497 228.525 54.374L226.68 53.923C223.564 53.144 221.268 50.315 221.268 46.953ZM221.678 58.187L222.293 57.9C223.277 60.237 225.573 61.836 228.279 61.836C231.887 61.836 234.798 58.925 234.798 55.317C234.798 52.242 232.707 49.7 229.837 48.962L228.033 48.511C227.295 48.306 226.844 47.691 226.844 46.953C226.844 46.051 227.541 45.354 228.443 45.354C229.14 45.354 229.714 45.805 229.919 46.42L229.345 46.666C229.222 46.297 228.853 46.01 228.443 46.01C227.91 46.01 227.5 46.42 227.5 46.953C227.5 47.404 227.746 47.773 228.197 47.896L230.042 48.347C233.199 49.126 235.454 51.955 235.454 55.317C235.454 59.294 232.256 62.492 228.279 62.492C225.327 62.492 222.785 60.729 221.678 58.187ZM253.385 44.534V33.3H254.041V44.534H264.865V33.3H265.521V44.534H270.441V33.3H271.097V62H270.441V50.766H265.521V62H264.865V50.766H254.041V62H253.385V50.766H248.465V62H247.809V33.3H248.465V44.534H253.385ZM264.865 45.19H254.041V50.11H264.865V45.19ZM253.385 50.11V45.19H248.465V50.11H253.385ZM270.441 50.11V45.19H265.521V50.11H270.441ZM291.291 42.115V60.155C294.038 58.474 296.211 55.071 296.211 51.135C296.211 47.199 294.038 43.796 291.291 42.115ZM285.51 39.778C287.355 39.778 289.077 40.229 290.635 41.008V40.27H291.291V41.377C293.587 42.648 295.35 44.944 296.211 47.322V40.27H296.867V62H296.211V54.907C295.391 57.244 293.587 59.663 291.291 60.934V62H290.635V61.262C289.077 62.041 287.355 62.492 285.51 62.492C279.237 62.492 274.153 57.408 274.153 51.135C274.153 44.862 279.237 39.778 285.51 39.778ZM285.51 61.836C287.355 61.836 289.118 61.385 290.635 60.565V53.841C289.651 55.645 287.724 56.916 285.51 56.916C282.312 56.916 279.729 54.333 279.729 51.135C279.729 47.937 282.312 45.354 285.51 45.354C287.724 45.354 289.651 46.625 290.635 48.47V41.746C289.118 40.926 287.355 40.434 285.51 40.434C279.606 40.434 274.809 45.231 274.809 51.135C274.809 57.039 279.606 61.836 285.51 61.836ZM285.51 56.26C288.38 56.26 290.635 53.964 290.635 51.135C290.635 48.306 288.38 46.01 285.51 46.01C282.681 46.01 280.385 48.306 280.385 51.135C280.385 53.964 282.681 56.26 285.51 56.26ZM306.625 60.155V42.115C303.878 43.796 301.705 47.199 301.705 51.135C301.705 55.071 303.878 58.474 306.625 60.155ZM312.406 62.492C310.561 62.492 308.839 62.041 307.281 61.262V71.02H306.625V60.893C304.329 59.622 302.525 57.285 301.705 54.948V71.02H301.049V40.27H301.705V47.363C302.525 44.985 304.329 42.607 306.625 41.336V40.27H307.281V41.008C308.839 40.229 310.561 39.778 312.406 39.778C318.679 39.778 323.763 44.862 323.763 51.135C323.763 57.408 318.679 62.492 312.406 62.492ZM312.406 56.916C310.192 56.916 308.265 55.645 307.281 53.8V60.524C308.798 61.344 310.561 61.836 312.406 61.836C318.31 61.836 323.107 57.039 323.107 51.135C323.107 45.231 318.31 40.434 312.406 40.434C310.561 40.434 308.798 40.885 307.281 41.705V48.429C308.265 46.625 310.192 45.354 312.406 45.354C315.604 45.354 318.187 47.937 318.187 51.135C318.187 54.333 315.604 56.916 312.406 56.916ZM312.406 46.01C309.536 46.01 307.281 48.306 307.281 51.135C307.281 53.964 309.536 56.26 312.406 56.26C315.235 56.26 317.531 53.964 317.531 51.135C317.531 48.306 315.235 46.01 312.406 46.01ZM332.29 60.155V42.115C329.543 43.796 327.37 47.199 327.37 51.135C327.37 55.071 329.543 58.474 332.29 60.155ZM338.071 62.492C336.226 62.492 334.504 62.041 332.946 61.262V71.02H332.29V60.893C329.994 59.622 328.19 57.285 327.37 54.948V71.02H326.714V40.27H327.37V47.363C328.19 44.985 329.994 42.607 332.29 41.336V40.27H332.946V41.008C334.504 40.229 336.226 39.778 338.071 39.778C344.344 39.778 349.428 44.862 349.428 51.135C349.428 57.408 344.344 62.492 338.071 62.492ZM338.071 56.916C335.857 56.916 333.93 55.645 332.946 53.8V60.524C334.463 61.344 336.226 61.836 338.071 61.836C343.975 61.836 348.772 57.039 348.772 51.135C348.772 45.231 343.975 40.434 338.071 40.434C336.226 40.434 334.463 40.885 332.946 41.705V48.429C333.93 46.625 335.857 45.354 338.071 45.354C341.269 45.354 343.852 47.937 343.852 51.135C343.852 54.333 341.269 56.916 338.071 56.916ZM338.071 46.01C335.201 46.01 332.946 48.306 332.946 51.135C332.946 53.964 335.201 56.26 338.071 56.26C340.9 56.26 343.196 53.964 343.196 51.135C343.196 48.306 340.9 46.01 338.071 46.01ZM372.994 40.27L358.808 71.02H358.111L360.653 65.526L357.783 59.376L352.412 71.02H351.715L357.455 58.597L348.886 40.27H349.583L357.783 57.859L360.612 51.75L355.282 40.27H355.979L360.981 50.971L365.901 40.27H366.598L361.309 51.709L364.179 57.859L372.297 40.27H372.994ZM361.022 64.747L363.851 58.638L360.981 52.488L358.152 58.638L361.022 64.747ZM387.158 33.956H381.295V33.3H399.253V33.956H393.39V38.876H399.253V39.532H393.39V62H392.734V39.532H387.814V62H387.158V39.532H381.295V38.876H387.158V33.956ZM392.734 33.956H387.814V38.876H392.734V33.956ZM401.747 62V31.25H402.403V46.461C403.305 44.124 405.068 42.197 407.323 41.09V31.25H407.979V40.762C409.127 40.311 410.357 40.065 411.669 40.065C417.122 40.065 421.591 44.534 421.591 49.987V62H420.935V49.987C420.935 44.903 416.753 40.721 411.669 40.721C410.357 40.721 409.127 41.008 407.979 41.5V47.691C408.758 46.461 410.111 45.641 411.669 45.641C414.047 45.641 416.015 47.609 416.015 49.987V62H415.359V49.987C415.359 47.978 413.678 46.297 411.669 46.297C409.66 46.297 407.979 47.978 407.979 49.987V62H407.323V41.828C404.412 43.386 402.403 46.461 402.403 49.987V62H401.747ZM435.577 62.492C429.304 62.492 424.22 57.408 424.22 51.135C424.22 44.862 429.304 39.778 435.577 39.778C441.85 39.778 446.934 44.862 446.934 51.135C446.934 57.408 441.85 62.492 435.577 62.492ZM435.577 61.836C441.481 61.836 446.278 57.039 446.278 51.135C446.278 45.231 441.481 40.434 435.577 40.434C429.673 40.434 424.876 45.231 424.876 51.135C424.876 57.039 429.673 61.836 435.577 61.836ZM435.577 56.916C432.379 56.916 429.796 54.333 429.796 51.135C429.796 47.937 432.379 45.354 435.577 45.354C438.775 45.354 441.358 47.937 441.358 51.135C441.358 54.333 438.775 56.916 435.577 56.916ZM435.577 56.26C438.406 56.26 440.702 53.964 440.702 51.135C440.702 48.306 438.406 46.01 435.577 46.01C432.748 46.01 430.452 48.306 430.452 51.135C430.452 53.964 432.748 56.26 435.577 56.26ZM469.39 40.27V62H468.734V55.809C467.832 58.146 466.069 60.073 463.814 61.18V62H463.158V61.508C462.01 61.959 460.78 62.205 459.468 62.205C454.015 62.205 449.546 57.736 449.546 52.283V40.27H450.202V52.283C450.202 57.367 454.384 61.549 459.468 61.549C460.78 61.549 462.01 61.262 463.158 60.77V54.579C462.379 55.809 461.026 56.629 459.468 56.629C457.09 56.629 455.122 54.661 455.122 52.283V40.27H455.778V52.283C455.778 54.292 457.459 55.973 459.468 55.973C461.477 55.973 463.158 54.292 463.158 52.283V40.27H463.814V60.442C466.725 58.884 468.734 55.809 468.734 52.283V40.27H469.39ZM472.388 51.135C472.388 44.862 477.472 39.778 483.745 39.778C485.59 39.778 487.312 40.229 488.87 41.008V40.27H489.526V41.377C491.822 42.648 493.585 44.944 494.446 47.322V40.27H495.102V60.155C495.102 66.428 490.059 71.512 483.745 71.512C479.85 71.512 476.406 69.503 474.315 66.51L474.889 66.182C476.857 69.011 480.096 70.856 483.745 70.856C489.731 70.856 494.446 66.1 494.446 60.155V54.907C493.626 57.285 491.781 59.663 489.444 60.934C489.034 63.722 486.697 65.936 483.745 65.936C481.9 65.936 480.219 65.034 479.153 63.722L479.727 63.394C480.629 64.501 482.146 65.28 483.745 65.28C486.205 65.28 488.214 63.599 488.747 61.344C487.23 62.041 485.508 62.492 483.745 62.492C477.472 62.492 472.388 57.408 472.388 51.135ZM473.044 51.135C473.044 57.039 477.841 61.836 483.745 61.836C485.59 61.836 487.312 61.385 488.829 60.565C488.87 60.278 488.87 59.745 488.87 59.212V53.841C487.886 55.645 485.959 56.916 483.745 56.916C480.547 56.916 477.964 54.333 477.964 51.135C477.964 47.937 480.547 45.354 483.745 45.354C485.959 45.354 487.886 46.625 488.87 48.47V41.746C487.353 40.926 485.59 40.434 483.745 40.434C477.841 40.434 473.044 45.231 473.044 51.135ZM478.62 51.135C478.62 53.964 480.916 56.26 483.745 56.26C486.615 56.26 488.87 53.964 488.87 51.135C488.87 48.306 486.615 46.01 483.745 46.01C480.916 46.01 478.62 48.306 478.62 51.135ZM489.526 42.115V60.155C492.273 58.474 494.446 55.071 494.446 51.135C494.446 47.199 492.273 43.796 489.526 42.115ZM499.242 62V31.25H499.898V46.461C500.8 44.124 502.563 42.197 504.818 41.09V31.25H505.474V40.762C506.622 40.311 507.852 40.065 509.164 40.065C514.617 40.065 519.086 44.534 519.086 49.987V62H518.43V49.987C518.43 44.903 514.248 40.721 509.164 40.721C507.852 40.721 506.622 41.008 505.474 41.5V47.691C506.253 46.461 507.606 45.641 509.164 45.641C511.542 45.641 513.51 47.609 513.51 49.987V62H512.854V49.987C512.854 47.978 511.173 46.297 509.164 46.297C507.155 46.297 505.474 47.978 505.474 49.987V62H504.818V41.828C501.907 43.386 499.898 46.461 499.898 49.987V62H499.242ZM524.595 40.926H521.356V40.27H524.595V33.3H525.251V40.27H530.171V33.3H530.827V40.27H534.066V40.926H530.827V45.846H534.066V46.502H530.827V62H530.171V46.502H525.251V62H524.595V46.502H521.356V45.846H524.595V40.926ZM530.171 40.926H525.251V45.846H530.171V40.926ZM536.055 46.953C536.055 42.976 539.253 39.778 543.23 39.778C546.182 39.778 548.724 41.582 549.831 44.124L549.216 44.411C548.232 42.074 545.895 40.434 543.23 40.434C539.622 40.434 536.711 43.345 536.711 46.953C536.711 50.028 538.802 52.57 541.672 53.308L543.476 53.759C544.173 53.923 544.665 54.579 544.665 55.317C544.665 56.219 543.968 56.916 543.066 56.916C542.369 56.916 541.795 56.506 541.549 55.85L542.164 55.604C542.287 55.973 542.615 56.26 543.066 56.26C543.599 56.26 544.009 55.85 544.009 55.317C544.009 54.866 543.763 54.497 543.312 54.374L541.467 53.923C538.351 53.144 536.055 50.315 536.055 46.953ZM536.465 58.187L537.08 57.9C538.064 60.237 540.36 61.836 543.066 61.836C546.674 61.836 549.585 58.925 549.585 55.317C549.585 52.242 547.494 49.7 544.624 48.962L542.82 48.511C542.082 48.306 541.631 47.691 541.631 46.953C541.631 46.051 542.328 45.354 543.23 45.354C543.927 45.354 544.501 45.805 544.706 46.42L544.132 46.666C544.009 46.297 543.64 46.01 543.23 46.01C542.697 46.01 542.287 46.42 542.287 46.953C542.287 47.404 542.533 47.773 542.984 47.896L544.829 48.347C547.986 49.126 550.241 51.955 550.241 55.317C550.241 59.294 547.043 62.492 543.066 62.492C540.114 62.492 537.572 60.729 536.465 58.187ZM568.172 44.534V33.3H568.828V44.534H579.652V33.3H580.308V44.534H585.228V33.3H585.884V62H585.228V50.766H580.308V62H579.652V50.766H568.828V62H568.172V50.766H563.252V62H562.596V33.3H563.252V44.534H568.172ZM579.652 45.19H568.828V50.11H579.652V45.19ZM568.172 50.11V45.19H563.252V50.11H568.172ZM585.228 50.11V45.19H580.308V50.11H585.228ZM606.079 42.115V60.155C608.826 58.474 610.999 55.071 610.999 51.135C610.999 47.199 608.826 43.796 606.079 42.115ZM600.298 39.778C602.143 39.778 603.865 40.229 605.423 41.008V40.27H606.079V41.377C608.375 42.648 610.138 44.944 610.999 47.322V40.27H611.655V62H610.999V54.907C610.179 57.244 608.375 59.663 606.079 60.934V62H605.423V61.262C603.865 62.041 602.143 62.492 600.298 62.492C594.025 62.492 588.941 57.408 588.941 51.135C588.941 44.862 594.025 39.778 600.298 39.778ZM600.298 61.836C602.143 61.836 603.906 61.385 605.423 60.565V53.841C604.439 55.645 602.512 56.916 600.298 56.916C597.1 56.916 594.517 54.333 594.517 51.135C594.517 47.937 597.1 45.354 600.298 45.354C602.512 45.354 604.439 46.625 605.423 48.47V41.746C603.906 40.926 602.143 40.434 600.298 40.434C594.394 40.434 589.597 45.231 589.597 51.135C589.597 57.039 594.394 61.836 600.298 61.836ZM600.298 56.26C603.168 56.26 605.423 53.964 605.423 51.135C605.423 48.306 603.168 46.01 600.298 46.01C597.469 46.01 595.173 48.306 595.173 51.135C595.173 53.964 597.469 56.26 600.298 56.26ZM621.412 60.155V42.115C618.665 43.796 616.492 47.199 616.492 51.135C616.492 55.071 618.665 58.474 621.412 60.155ZM627.193 62.492C625.348 62.492 623.626 62.041 622.068 61.262V71.02H621.412V60.893C619.116 59.622 617.312 57.285 616.492 54.948V71.02H615.836V40.27H616.492V47.363C617.312 44.985 619.116 42.607 621.412 41.336V40.27H622.068V41.008C623.626 40.229 625.348 39.778 627.193 39.778C633.466 39.778 638.55 44.862 638.55 51.135C638.55 57.408 633.466 62.492 627.193 62.492ZM627.193 56.916C624.979 56.916 623.052 55.645 622.068 53.8V60.524C623.585 61.344 625.348 61.836 627.193 61.836C633.097 61.836 637.894 57.039 637.894 51.135C637.894 45.231 633.097 40.434 627.193 40.434C625.348 40.434 623.585 40.885 622.068 41.705V48.429C623.052 46.625 624.979 45.354 627.193 45.354C630.391 45.354 632.974 47.937 632.974 51.135C632.974 54.333 630.391 56.916 627.193 56.916ZM627.193 46.01C624.323 46.01 622.068 48.306 622.068 51.135C622.068 53.964 624.323 56.26 627.193 56.26C630.022 56.26 632.318 53.964 632.318 51.135C632.318 48.306 630.022 46.01 627.193 46.01ZM647.077 60.155V42.115C644.33 43.796 642.157 47.199 642.157 51.135C642.157 55.071 644.33 58.474 647.077 60.155ZM652.858 62.492C651.013 62.492 649.291 62.041 647.733 61.262V71.02H647.077V60.893C644.781 59.622 642.977 57.285 642.157 54.948V71.02H641.501V40.27H642.157V47.363C642.977 44.985 644.781 42.607 647.077 41.336V40.27H647.733V41.008C649.291 40.229 651.013 39.778 652.858 39.778C659.131 39.778 664.215 44.862 664.215 51.135C664.215 57.408 659.131 62.492 652.858 62.492ZM652.858 56.916C650.644 56.916 648.717 55.645 647.733 53.8V60.524C649.25 61.344 651.013 61.836 652.858 61.836C658.762 61.836 663.559 57.039 663.559 51.135C663.559 45.231 658.762 40.434 652.858 40.434C651.013 40.434 649.25 40.885 647.733 41.705V48.429C648.717 46.625 650.644 45.354 652.858 45.354C656.056 45.354 658.639 47.937 658.639 51.135C658.639 54.333 656.056 56.916 652.858 56.916ZM652.858 46.01C649.988 46.01 647.733 48.306 647.733 51.135C647.733 53.964 649.988 56.26 652.858 56.26C655.687 56.26 657.983 53.964 657.983 51.135C657.983 48.306 655.687 46.01 652.858 46.01ZM687.781 40.27L673.595 71.02H672.898L675.44 65.526L672.57 59.376L667.199 71.02H666.502L672.242 58.597L663.673 40.27H664.37L672.57 57.859L675.399 51.75L670.069 40.27H670.766L675.768 50.971L680.688 40.27H681.385L676.096 51.709L678.966 57.859L687.084 40.27H687.781ZM675.809 64.747L678.638 58.638L675.768 52.488L672.939 58.638L675.809 64.747ZM701.945 33.956H696.082V33.3H714.04V33.956H708.177V38.876H714.04V39.532H708.177V62H707.521V39.532H702.601V62H701.945V39.532H696.082V38.876H701.945V33.956ZM707.521 33.956H702.601V38.876H707.521V33.956ZM716.534 62V31.25H717.19V46.461C718.092 44.124 719.855 42.197 722.11 41.09V31.25H722.766V40.762C723.914 40.311 725.144 40.065 726.456 40.065C731.909 40.065 736.378 44.534 736.378 49.987V62H735.722V49.987C735.722 44.903 731.54 40.721 726.456 40.721C725.144 40.721 723.914 41.008 722.766 41.5V47.691C723.545 46.461 724.898 45.641 726.456 45.641C728.834 45.641 730.802 47.609 730.802 49.987V62H730.146V49.987C730.146 47.978 728.465 46.297 726.456 46.297C724.447 46.297 722.766 47.978 722.766 49.987V62H722.11V41.828C719.199 43.386 717.19 46.461 717.19 49.987V62H716.534ZM750.364 62.492C744.091 62.492 739.007 57.408 739.007 51.135C739.007 44.862 744.091 39.778 750.364 39.778C756.637 39.778 761.721 44.862 761.721 51.135C761.721 57.408 756.637 62.492 750.364 62.492ZM750.364 61.836C756.268 61.836 761.065 57.039 761.065 51.135C761.065 45.231 756.268 40.434 750.364 40.434C744.46 40.434 739.663 45.231 739.663 51.135C739.663 57.039 744.46 61.836 750.364 61.836ZM750.364 56.916C747.166 56.916 744.583 54.333 744.583 51.135C744.583 47.937 747.166 45.354 750.364 45.354C753.562 45.354 756.145 47.937 756.145 51.135C756.145 54.333 753.562 56.916 750.364 56.916ZM750.364 56.26C753.193 56.26 755.489 53.964 755.489 51.135C755.489 48.306 753.193 46.01 750.364 46.01C747.535 46.01 745.239 48.306 745.239 51.135C745.239 53.964 747.535 56.26 750.364 56.26ZM784.177 40.27V62H783.521V55.809C782.619 58.146 780.856 60.073 778.601 61.18V62H777.945V61.508C776.797 61.959 775.567 62.205 774.255 62.205C768.802 62.205 764.333 57.736 764.333 52.283V40.27H764.989V52.283C764.989 57.367 769.171 61.549 774.255 61.549C775.567 61.549 776.797 61.262 777.945 60.77V54.579C777.166 55.809 775.813 56.629 774.255 56.629C771.877 56.629 769.909 54.661 769.909 52.283V40.27H770.565V52.283C770.565 54.292 772.246 55.973 774.255 55.973C776.264 55.973 777.945 54.292 777.945 52.283V40.27H778.601V60.442C781.512 58.884 783.521 55.809 783.521 52.283V40.27H784.177ZM787.175 51.135C787.175 44.862 792.259 39.778 798.532 39.778C800.377 39.778 802.099 40.229 803.657 41.008V40.27H804.313V41.377C806.609 42.648 808.372 44.944 809.233 47.322V40.27H809.889V60.155C809.889 66.428 804.846 71.512 798.532 71.512C794.637 71.512 791.193 69.503 789.102 66.51L789.676 66.182C791.644 69.011 794.883 70.856 798.532 70.856C804.518 70.856 809.233 66.1 809.233 60.155V54.907C808.413 57.285 806.568 59.663 804.231 60.934C803.821 63.722 801.484 65.936 798.532 65.936C796.687 65.936 795.006 65.034 793.94 63.722L794.514 63.394C795.416 64.501 796.933 65.28 798.532 65.28C800.992 65.28 803.001 63.599 803.534 61.344C802.017 62.041 800.295 62.492 798.532 62.492C792.259 62.492 787.175 57.408 787.175 51.135ZM787.831 51.135C787.831 57.039 792.628 61.836 798.532 61.836C800.377 61.836 802.099 61.385 803.616 60.565C803.657 60.278 803.657 59.745 803.657 59.212V53.841C802.673 55.645 800.746 56.916 798.532 56.916C795.334 56.916 792.751 54.333 792.751 51.135C792.751 47.937 795.334 45.354 798.532 45.354C800.746 45.354 802.673 46.625 803.657 48.47V41.746C802.14 40.926 800.377 40.434 798.532 40.434C792.628 40.434 787.831 45.231 787.831 51.135ZM793.407 51.135C793.407 53.964 795.703 56.26 798.532 56.26C801.402 56.26 803.657 53.964 803.657 51.135C803.657 48.306 801.402 46.01 798.532 46.01C795.703 46.01 793.407 48.306 793.407 51.135ZM804.313 42.115V60.155C807.06 58.474 809.233 55.071 809.233 51.135C809.233 47.199 807.06 43.796 804.313 42.115ZM814.029 62V31.25H814.685V46.461C815.587 44.124 817.35 42.197 819.605 41.09V31.25H820.261V40.762C821.409 40.311 822.639 40.065 823.951 40.065C829.404 40.065 833.873 44.534 833.873 49.987V62H833.217V49.987C833.217 44.903 829.035 40.721 823.951 40.721C822.639 40.721 821.409 41.008 820.261 41.5V47.691C821.04 46.461 822.393 45.641 823.951 45.641C826.329 45.641 828.297 47.609 828.297 49.987V62H827.641V49.987C827.641 47.978 825.96 46.297 823.951 46.297C821.942 46.297 820.261 47.978 820.261 49.987V62H819.605V41.828C816.694 43.386 814.685 46.461 814.685 49.987V62H814.029ZM839.382 40.926H836.143V40.27H839.382V33.3H840.038V40.27H844.958V33.3H845.614V40.27H848.853V40.926H845.614V45.846H848.853V46.502H845.614V62H844.958V46.502H840.038V62H839.382V46.502H836.143V45.846H839.382V40.926ZM844.958 40.926H840.038V45.846H844.958V40.926ZM850.842 46.953C850.842 42.976 854.04 39.778 858.017 39.778C860.969 39.778 863.511 41.582 864.618 44.124L864.003 44.411C863.019 42.074 860.682 40.434 858.017 40.434C854.409 40.434 851.498 43.345 851.498 46.953C851.498 50.028 853.589 52.57 856.459 53.308L858.263 53.759C858.96 53.923 859.452 54.579 859.452 55.317C859.452 56.219 858.755 56.916 857.853 56.916C857.156 56.916 856.582 56.506 856.336 55.85L856.951 55.604C857.074 55.973 857.402 56.26 857.853 56.26C858.386 56.26 858.796 55.85 858.796 55.317C858.796 54.866 858.55 54.497 858.099 54.374L856.254 53.923C853.138 53.144 850.842 50.315 850.842 46.953ZM851.252 58.187L851.867 57.9C852.851 60.237 855.147 61.836 857.853 61.836C861.461 61.836 864.372 58.925 864.372 55.317C864.372 52.242 862.281 49.7 859.411 48.962L857.607 48.511C856.869 48.306 856.418 47.691 856.418 46.953C856.418 46.051 857.115 45.354 858.017 45.354C858.714 45.354 859.288 45.805 859.493 46.42L858.919 46.666C858.796 46.297 858.427 46.01 858.017 46.01C857.484 46.01 857.074 46.42 857.074 46.953C857.074 47.404 857.32 47.773 857.771 47.896L859.616 48.347C862.773 49.126 865.028 51.955 865.028 55.317C865.028 59.294 861.83 62.492 857.853 62.492C854.901 62.492 852.359 60.729 851.252 58.187ZM882.959 44.534V33.3H883.615V44.534H894.439V33.3H895.095V44.534H900.015V33.3H900.671V62H900.015V50.766H895.095V62H894.439V50.766H883.615V62H882.959V50.766H878.039V62H877.383V33.3H878.039V44.534H882.959ZM894.439 45.19H883.615V50.11H894.439V45.19ZM882.959 50.11V45.19H878.039V50.11H882.959ZM900.015 50.11V45.19H895.095V50.11H900.015ZM920.866 42.115V60.155C923.613 58.474 925.786 55.071 925.786 51.135C925.786 47.199 923.613 43.796 920.866 42.115ZM915.085 39.778C916.93 39.778 918.652 40.229 920.21 41.008V40.27H920.866V41.377C923.162 42.648 924.925 44.944 925.786 47.322V40.27H926.442V62H925.786V54.907C924.966 57.244 923.162 59.663 920.866 60.934V62H920.21V61.262C918.652 62.041 916.93 62.492 915.085 62.492C908.812 62.492 903.728 57.408 903.728 51.135C903.728 44.862 908.812 39.778 915.085 39.778ZM915.085 61.836C916.93 61.836 918.693 61.385 920.21 60.565V53.841C919.226 55.645 917.299 56.916 915.085 56.916C911.887 56.916 909.304 54.333 909.304 51.135C909.304 47.937 911.887 45.354 915.085 45.354C917.299 45.354 919.226 46.625 920.21 48.47V41.746C918.693 40.926 916.93 40.434 915.085 40.434C909.181 40.434 904.384 45.231 904.384 51.135C904.384 57.039 909.181 61.836 915.085 61.836ZM915.085 56.26C917.955 56.26 920.21 53.964 920.21 51.135C920.21 48.306 917.955 46.01 915.085 46.01C912.256 46.01 909.96 48.306 909.96 51.135C909.96 53.964 912.256 56.26 915.085 56.26ZM936.199 60.155V42.115C933.452 43.796 931.279 47.199 931.279 51.135C931.279 55.071 933.452 58.474 936.199 60.155ZM941.98 62.492C940.135 62.492 938.413 62.041 936.855 61.262V71.02H936.199V60.893C933.903 59.622 932.099 57.285 931.279 54.948V71.02H930.623V40.27H931.279V47.363C932.099 44.985 933.903 42.607 936.199 41.336V40.27H936.855V41.008C938.413 40.229 940.135 39.778 941.98 39.778C948.253 39.778 953.337 44.862 953.337 51.135C953.337 57.408 948.253 62.492 941.98 62.492ZM941.98 56.916C939.766 56.916 937.839 55.645 936.855 53.8V60.524C938.372 61.344 940.135 61.836 941.98 61.836C947.884 61.836 952.681 57.039 952.681 51.135C952.681 45.231 947.884 40.434 941.98 40.434C940.135 40.434 938.372 40.885 936.855 41.705V48.429C937.839 46.625 939.766 45.354 941.98 45.354C945.178 45.354 947.761 47.937 947.761 51.135C947.761 54.333 945.178 56.916 941.98 56.916ZM941.98 46.01C939.11 46.01 936.855 48.306 936.855 51.135C936.855 53.964 939.11 56.26 941.98 56.26C944.809 56.26 947.105 53.964 947.105 51.135C947.105 48.306 944.809 46.01 941.98 46.01ZM961.864 60.155V42.115C959.117 43.796 956.944 47.199 956.944 51.135C956.944 55.071 959.117 58.474 961.864 60.155ZM967.645 62.492C965.8 62.492 964.078 62.041 962.52 61.262V71.02H961.864V60.893C959.568 59.622 957.764 57.285 956.944 54.948V71.02H956.288V40.27H956.944V47.363C957.764 44.985 959.568 42.607 961.864 41.336V40.27H962.52V41.008C964.078 40.229 965.8 39.778 967.645 39.778C973.918 39.778 979.002 44.862 979.002 51.135C979.002 57.408 973.918 62.492 967.645 62.492ZM967.645 56.916C965.431 56.916 963.504 55.645 962.52 53.8V60.524C964.037 61.344 965.8 61.836 967.645 61.836C973.549 61.836 978.346 57.039 978.346 51.135C978.346 45.231 973.549 40.434 967.645 40.434C965.8 40.434 964.037 40.885 962.52 41.705V48.429C963.504 46.625 965.431 45.354 967.645 45.354C970.843 45.354 973.426 47.937 973.426 51.135C973.426 54.333 970.843 56.916 967.645 56.916ZM967.645 46.01C964.775 46.01 962.52 48.306 962.52 51.135C962.52 53.964 964.775 56.26 967.645 56.26C970.474 56.26 972.77 53.964 972.77 51.135C972.77 48.306 970.474 46.01 967.645 46.01ZM1002.57 40.27L988.382 71.02H987.685L990.227 65.526L987.357 59.376L981.986 71.02H981.289L987.029 58.597L978.46 40.27H979.157L987.357 57.859L990.186 51.75L984.856 40.27H985.553L990.555 50.971L995.475 40.27H996.172L990.883 51.709L993.753 57.859L1001.87 40.27H1002.57ZM990.596 64.747L993.425 58.638L990.555 52.488L987.726 58.638L990.596 64.747ZM1016.73 33.956H1010.87V33.3H1028.83V33.956H1022.96V38.876H1028.83V39.532H1022.96V62H1022.31V39.532H1017.39V62H1016.73V39.532H1010.87V38.876H1016.73V33.956ZM1022.31 33.956H1017.39V38.876H1022.31V33.956ZM1031.32 62V31.25H1031.98V46.461C1032.88 44.124 1034.64 42.197 1036.9 41.09V31.25H1037.55V40.762C1038.7 40.311 1039.93 40.065 1041.24 40.065C1046.7 40.065 1051.16 44.534 1051.16 49.987V62H1050.51V49.987C1050.51 44.903 1046.33 40.721 1041.24 40.721C1039.93 40.721 1038.7 41.008 1037.55 41.5V47.691C1038.33 46.461 1039.68 45.641 1041.24 45.641C1043.62 45.641 1045.59 47.609 1045.59 49.987V62H1044.93V49.987C1044.93 47.978 1043.25 46.297 1041.24 46.297C1039.23 46.297 1037.55 47.978 1037.55 49.987V62H1036.9V41.828C1033.99 43.386 1031.98 46.461 1031.98 49.987V62H1031.32ZM1065.15 62.492C1058.88 62.492 1053.79 57.408 1053.79 51.135C1053.79 44.862 1058.88 39.778 1065.15 39.778C1071.42 39.778 1076.51 44.862 1076.51 51.135C1076.51 57.408 1071.42 62.492 1065.15 62.492ZM1065.15 61.836C1071.06 61.836 1075.85 57.039 1075.85 51.135C1075.85 45.231 1071.06 40.434 1065.15 40.434C1059.25 40.434 1054.45 45.231 1054.45 51.135C1054.45 57.039 1059.25 61.836 1065.15 61.836ZM1065.15 56.916C1061.95 56.916 1059.37 54.333 1059.37 51.135C1059.37 47.937 1061.95 45.354 1065.15 45.354C1068.35 45.354 1070.93 47.937 1070.93 51.135C1070.93 54.333 1068.35 56.916 1065.15 56.916ZM1065.15 56.26C1067.98 56.26 1070.28 53.964 1070.28 51.135C1070.28 48.306 1067.98 46.01 1065.15 46.01C1062.32 46.01 1060.03 48.306 1060.03 51.135C1060.03 53.964 1062.32 56.26 1065.15 56.26ZM1098.96 40.27V62H1098.31V55.809C1097.41 58.146 1095.64 60.073 1093.39 61.18V62H1092.73V61.508C1091.58 61.959 1090.35 62.205 1089.04 62.205C1083.59 62.205 1079.12 57.736 1079.12 52.283V40.27H1079.78V52.283C1079.78 57.367 1083.96 61.549 1089.04 61.549C1090.35 61.549 1091.58 61.262 1092.73 60.77V54.579C1091.95 55.809 1090.6 56.629 1089.04 56.629C1086.66 56.629 1084.7 54.661 1084.7 52.283V40.27H1085.35V52.283C1085.35 54.292 1087.03 55.973 1089.04 55.973C1091.05 55.973 1092.73 54.292 1092.73 52.283V40.27H1093.39V60.442C1096.3 58.884 1098.31 55.809 1098.31 52.283V40.27H1098.96ZM1101.96 51.135C1101.96 44.862 1107.05 39.778 1113.32 39.778C1115.16 39.778 1116.89 40.229 1118.44 41.008V40.27H1119.1V41.377C1121.4 42.648 1123.16 44.944 1124.02 47.322V40.27H1124.68V60.155C1124.68 66.428 1119.63 71.512 1113.32 71.512C1109.42 71.512 1105.98 69.503 1103.89 66.51L1104.46 66.182C1106.43 69.011 1109.67 70.856 1113.32 70.856C1119.31 70.856 1124.02 66.1 1124.02 60.155V54.907C1123.2 57.285 1121.36 59.663 1119.02 60.934C1118.61 63.722 1116.27 65.936 1113.32 65.936C1111.47 65.936 1109.79 65.034 1108.73 63.722L1109.3 63.394C1110.2 64.501 1111.72 65.28 1113.32 65.28C1115.78 65.28 1117.79 63.599 1118.32 61.344C1116.8 62.041 1115.08 62.492 1113.32 62.492C1107.05 62.492 1101.96 57.408 1101.96 51.135ZM1102.62 51.135C1102.62 57.039 1107.42 61.836 1113.32 61.836C1115.16 61.836 1116.89 61.385 1118.4 60.565C1118.44 60.278 1118.44 59.745 1118.44 59.212V53.841C1117.46 55.645 1115.53 56.916 1113.32 56.916C1110.12 56.916 1107.54 54.333 1107.54 51.135C1107.54 47.937 1110.12 45.354 1113.32 45.354C1115.53 45.354 1117.46 46.625 1118.44 48.47V41.746C1116.93 40.926 1115.16 40.434 1113.32 40.434C1107.42 40.434 1102.62 45.231 1102.62 51.135ZM1108.19 51.135C1108.19 53.964 1110.49 56.26 1113.32 56.26C1116.19 56.26 1118.44 53.964 1118.44 51.135C1118.44 48.306 1116.19 46.01 1113.32 46.01C1110.49 46.01 1108.19 48.306 1108.19 51.135ZM1119.1 42.115V60.155C1121.85 58.474 1124.02 55.071 1124.02 51.135C1124.02 47.199 1121.85 43.796 1119.1 42.115ZM1128.82 62V31.25H1129.47V46.461C1130.37 44.124 1132.14 42.197 1134.39 41.09V31.25H1135.05V40.762C1136.2 40.311 1137.43 40.065 1138.74 40.065C1144.19 40.065 1148.66 44.534 1148.66 49.987V62H1148V49.987C1148 44.903 1143.82 40.721 1138.74 40.721C1137.43 40.721 1136.2 41.008 1135.05 41.5V47.691C1135.83 46.461 1137.18 45.641 1138.74 45.641C1141.12 45.641 1143.08 47.609 1143.08 49.987V62H1142.43V49.987C1142.43 47.978 1140.75 46.297 1138.74 46.297C1136.73 46.297 1135.05 47.978 1135.05 49.987V62H1134.39V41.828C1131.48 43.386 1129.47 46.461 1129.47 49.987V62H1128.82ZM1154.17 40.926H1150.93V40.27H1154.17V33.3H1154.82V40.27H1159.74V33.3H1160.4V40.27H1163.64V40.926H1160.4V45.846H1163.64V46.502H1160.4V62H1159.74V46.502H1154.82V62H1154.17V46.502H1150.93V45.846H1154.17V40.926ZM1159.74 40.926H1154.82V45.846H1159.74V40.926ZM1165.63 46.953C1165.63 42.976 1168.83 39.778 1172.8 39.778C1175.76 39.778 1178.3 41.582 1179.4 44.124L1178.79 44.411C1177.81 42.074 1175.47 40.434 1172.8 40.434C1169.2 40.434 1166.28 43.345 1166.28 46.953C1166.28 50.028 1168.38 52.57 1171.25 53.308L1173.05 53.759C1173.75 53.923 1174.24 54.579 1174.24 55.317C1174.24 56.219 1173.54 56.916 1172.64 56.916C1171.94 56.916 1171.37 56.506 1171.12 55.85L1171.74 55.604C1171.86 55.973 1172.19 56.26 1172.64 56.26C1173.17 56.26 1173.58 55.85 1173.58 55.317C1173.58 54.866 1173.34 54.497 1172.89 54.374L1171.04 53.923C1167.92 53.144 1165.63 50.315 1165.63 46.953ZM1166.04 58.187L1166.65 57.9C1167.64 60.237 1169.93 61.836 1172.64 61.836C1176.25 61.836 1179.16 58.925 1179.16 55.317C1179.16 52.242 1177.07 49.7 1174.2 48.962L1172.39 48.511C1171.66 48.306 1171.2 47.691 1171.2 46.953C1171.2 46.051 1171.9 45.354 1172.8 45.354C1173.5 45.354 1174.07 45.805 1174.28 46.42L1173.71 46.666C1173.58 46.297 1173.21 46.01 1172.8 46.01C1172.27 46.01 1171.86 46.42 1171.86 46.953C1171.86 47.404 1172.11 47.773 1172.56 47.896L1174.4 48.347C1177.56 49.126 1179.81 51.955 1179.81 55.317C1179.81 59.294 1176.62 62.492 1172.64 62.492C1169.69 62.492 1167.15 60.729 1166.04 58.187ZM1197.75 44.534V33.3H1198.4V44.534H1209.23V33.3H1209.88V44.534H1214.8V33.3H1215.46V62H1214.8V50.766H1209.88V62H1209.23V50.766H1198.4V62H1197.75V50.766H1192.83V62H1192.17V33.3H1192.83V44.534H1197.75ZM1209.23 45.19H1198.4V50.11H1209.23V45.19ZM1197.75 50.11V45.19H1192.83V50.11H1197.75ZM1214.8 50.11V45.19H1209.88V50.11H1214.8ZM1235.65 42.115V60.155C1238.4 58.474 1240.57 55.071 1240.57 51.135C1240.57 47.199 1238.4 43.796 1235.65 42.115ZM1229.87 39.778C1231.72 39.778 1233.44 40.229 1235 41.008V40.27H1235.65V41.377C1237.95 42.648 1239.71 44.944 1240.57 47.322V40.27H1241.23V62H1240.57V54.907C1239.75 57.244 1237.95 59.663 1235.65 60.934V62H1235V61.262C1233.44 62.041 1231.72 62.492 1229.87 62.492C1223.6 62.492 1218.51 57.408 1218.51 51.135C1218.51 44.862 1223.6 39.778 1229.87 39.778ZM1229.87 61.836C1231.72 61.836 1233.48 61.385 1235 60.565V53.841C1234.01 55.645 1232.09 56.916 1229.87 56.916C1226.67 56.916 1224.09 54.333 1224.09 51.135C1224.09 47.937 1226.67 45.354 1229.87 45.354C1232.09 45.354 1234.01 46.625 1235 48.47V41.746C1233.48 40.926 1231.72 40.434 1229.87 40.434C1223.97 40.434 1219.17 45.231 1219.17 51.135C1219.17 57.039 1223.97 61.836 1229.87 61.836ZM1229.87 56.26C1232.74 56.26 1235 53.964 1235 51.135C1235 48.306 1232.74 46.01 1229.87 46.01C1227.04 46.01 1224.75 48.306 1224.75 51.135C1224.75 53.964 1227.04 56.26 1229.87 56.26ZM1250.99 60.155V42.115C1248.24 43.796 1246.07 47.199 1246.07 51.135C1246.07 55.071 1248.24 58.474 1250.99 60.155ZM1256.77 62.492C1254.92 62.492 1253.2 62.041 1251.64 61.262V71.02H1250.99V60.893C1248.69 59.622 1246.89 57.285 1246.07 54.948V71.02H1245.41V40.27H1246.07V47.363C1246.89 44.985 1248.69 42.607 1250.99 41.336V40.27H1251.64V41.008C1253.2 40.229 1254.92 39.778 1256.77 39.778C1263.04 39.778 1268.12 44.862 1268.12 51.135C1268.12 57.408 1263.04 62.492 1256.77 62.492ZM1256.77 56.916C1254.55 56.916 1252.63 55.645 1251.64 53.8V60.524C1253.16 61.344 1254.92 61.836 1256.77 61.836C1262.67 61.836 1267.47 57.039 1267.47 51.135C1267.47 45.231 1262.67 40.434 1256.77 40.434C1254.92 40.434 1253.16 40.885 1251.64 41.705V48.429C1252.63 46.625 1254.55 45.354 1256.77 45.354C1259.96 45.354 1262.55 47.937 1262.55 51.135C1262.55 54.333 1259.96 56.916 1256.77 56.916ZM1256.77 46.01C1253.9 46.01 1251.64 48.306 1251.64 51.135C1251.64 53.964 1253.9 56.26 1256.77 56.26C1259.6 56.26 1261.89 53.964 1261.89 51.135C1261.89 48.306 1259.6 46.01 1256.77 46.01ZM1276.65 60.155V42.115C1273.9 43.796 1271.73 47.199 1271.73 51.135C1271.73 55.071 1273.9 58.474 1276.65 60.155ZM1282.43 62.492C1280.59 62.492 1278.86 62.041 1277.31 61.262V71.02H1276.65V60.893C1274.35 59.622 1272.55 57.285 1271.73 54.948V71.02H1271.07V40.27H1271.73V47.363C1272.55 44.985 1274.35 42.607 1276.65 41.336V40.27H1277.31V41.008C1278.86 40.229 1280.59 39.778 1282.43 39.778C1288.7 39.778 1293.79 44.862 1293.79 51.135C1293.79 57.408 1288.7 62.492 1282.43 62.492ZM1282.43 56.916C1280.22 56.916 1278.29 55.645 1277.31 53.8V60.524C1278.82 61.344 1280.59 61.836 1282.43 61.836C1288.34 61.836 1293.13 57.039 1293.13 51.135C1293.13 45.231 1288.34 40.434 1282.43 40.434C1280.59 40.434 1278.82 40.885 1277.31 41.705V48.429C1278.29 46.625 1280.22 45.354 1282.43 45.354C1285.63 45.354 1288.21 47.937 1288.21 51.135C1288.21 54.333 1285.63 56.916 1282.43 56.916ZM1282.43 46.01C1279.56 46.01 1277.31 48.306 1277.31 51.135C1277.31 53.964 1279.56 56.26 1282.43 56.26C1285.26 56.26 1287.56 53.964 1287.56 51.135C1287.56 48.306 1285.26 46.01 1282.43 46.01ZM1317.36 40.27L1303.17 71.02H1302.47L1305.01 65.526L1302.14 59.376L1296.77 71.02H1296.08L1301.82 58.597L1293.25 40.27H1293.94L1302.14 57.859L1304.97 51.75L1299.64 40.27H1300.34L1305.34 50.971L1310.26 40.27H1310.96L1305.67 51.709L1308.54 57.859L1316.66 40.27H1317.36ZM1305.38 64.747L1308.21 58.638L1305.34 52.488L1302.51 58.638L1305.38 64.747ZM1331.52 33.956H1325.66V33.3H1343.61V33.956H1337.75V38.876H1343.61V39.532H1337.75V62H1337.1V39.532H1332.18V62H1331.52V39.532H1325.66V38.876H1331.52V33.956ZM1337.1 33.956H1332.18V38.876H1337.1V33.956ZM1346.11 62V31.25H1346.76V46.461C1347.67 44.124 1349.43 42.197 1351.68 41.09V31.25H1352.34V40.762C1353.49 40.311 1354.72 40.065 1356.03 40.065C1361.48 40.065 1365.95 44.534 1365.95 49.987V62H1365.3V49.987C1365.3 44.903 1361.11 40.721 1356.03 40.721C1354.72 40.721 1353.49 41.008 1352.34 41.5V47.691C1353.12 46.461 1354.47 45.641 1356.03 45.641C1358.41 45.641 1360.38 47.609 1360.38 49.987V62H1359.72V49.987C1359.72 47.978 1358.04 46.297 1356.03 46.297C1354.02 46.297 1352.34 47.978 1352.34 49.987V62H1351.68V41.828C1348.77 43.386 1346.76 46.461 1346.76 49.987V62H1346.11ZM1379.94 62.492C1373.67 62.492 1368.58 57.408 1368.58 51.135C1368.58 44.862 1373.67 39.778 1379.94 39.778C1386.21 39.778 1391.3 44.862 1391.3 51.135C1391.3 57.408 1386.21 62.492 1379.94 62.492ZM1379.94 61.836C1385.84 61.836 1390.64 57.039 1390.64 51.135C1390.64 45.231 1385.84 40.434 1379.94 40.434C1374.03 40.434 1369.24 45.231 1369.24 51.135C1369.24 57.039 1374.03 61.836 1379.94 61.836ZM1379.94 56.916C1376.74 56.916 1374.16 54.333 1374.16 51.135C1374.16 47.937 1376.74 45.354 1379.94 45.354C1383.14 45.354 1385.72 47.937 1385.72 51.135C1385.72 54.333 1383.14 56.916 1379.94 56.916ZM1379.94 56.26C1382.77 56.26 1385.06 53.964 1385.06 51.135C1385.06 48.306 1382.77 46.01 1379.94 46.01C1377.11 46.01 1374.81 48.306 1374.81 51.135C1374.81 53.964 1377.11 56.26 1379.94 56.26ZM1413.75 40.27V62H1413.1V55.809C1412.19 58.146 1410.43 60.073 1408.18 61.18V62H1407.52V61.508C1406.37 61.959 1405.14 62.205 1403.83 62.205C1398.38 62.205 1393.91 57.736 1393.91 52.283V40.27H1394.56V52.283C1394.56 57.367 1398.75 61.549 1403.83 61.549C1405.14 61.549 1406.37 61.262 1407.52 60.77V54.579C1406.74 55.809 1405.39 56.629 1403.83 56.629C1401.45 56.629 1399.48 54.661 1399.48 52.283V40.27H1400.14V52.283C1400.14 54.292 1401.82 55.973 1403.83 55.973C1405.84 55.973 1407.52 54.292 1407.52 52.283V40.27H1408.18V60.442C1411.09 58.884 1413.1 55.809 1413.1 52.283V40.27H1413.75ZM1416.75 51.135C1416.75 44.862 1421.83 39.778 1428.11 39.778C1429.95 39.778 1431.67 40.229 1433.23 41.008V40.27H1433.89V41.377C1436.18 42.648 1437.95 44.944 1438.81 47.322V40.27H1439.46V60.155C1439.46 66.428 1434.42 71.512 1428.11 71.512C1424.21 71.512 1420.77 69.503 1418.68 66.51L1419.25 66.182C1421.22 69.011 1424.46 70.856 1428.11 70.856C1434.09 70.856 1438.81 66.1 1438.81 60.155V54.907C1437.99 57.285 1436.14 59.663 1433.81 60.934C1433.4 63.722 1431.06 65.936 1428.11 65.936C1426.26 65.936 1424.58 65.034 1423.51 63.722L1424.09 63.394C1424.99 64.501 1426.51 65.28 1428.11 65.28C1430.57 65.28 1432.58 63.599 1433.11 61.344C1431.59 62.041 1429.87 62.492 1428.11 62.492C1421.83 62.492 1416.75 57.408 1416.75 51.135ZM1417.41 51.135C1417.41 57.039 1422.2 61.836 1428.11 61.836C1429.95 61.836 1431.67 61.385 1433.19 60.565C1433.23 60.278 1433.23 59.745 1433.23 59.212V53.841C1432.25 55.645 1430.32 56.916 1428.11 56.916C1424.91 56.916 1422.33 54.333 1422.33 51.135C1422.33 47.937 1424.91 45.354 1428.11 45.354C1430.32 45.354 1432.25 46.625 1433.23 48.47V41.746C1431.71 40.926 1429.95 40.434 1428.11 40.434C1422.2 40.434 1417.41 45.231 1417.41 51.135ZM1422.98 51.135C1422.98 53.964 1425.28 56.26 1428.11 56.26C1430.98 56.26 1433.23 53.964 1433.23 51.135C1433.23 48.306 1430.98 46.01 1428.11 46.01C1425.28 46.01 1422.98 48.306 1422.98 51.135ZM1433.89 42.115V60.155C1436.63 58.474 1438.81 55.071 1438.81 51.135C1438.81 47.199 1436.63 43.796 1433.89 42.115ZM1443.6 62V31.25H1444.26V46.461C1445.16 44.124 1446.92 42.197 1449.18 41.09V31.25H1449.84V40.762C1450.98 40.311 1452.21 40.065 1453.53 40.065C1458.98 40.065 1463.45 44.534 1463.45 49.987V62H1462.79V49.987C1462.79 44.903 1458.61 40.721 1453.53 40.721C1452.21 40.721 1450.98 41.008 1449.84 41.5V47.691C1450.61 46.461 1451.97 45.641 1453.53 45.641C1455.9 45.641 1457.87 47.609 1457.87 49.987V62H1457.22V49.987C1457.22 47.978 1455.53 46.297 1453.53 46.297C1451.52 46.297 1449.84 47.978 1449.84 49.987V62H1449.18V41.828C1446.27 43.386 1444.26 46.461 1444.26 49.987V62H1443.6ZM1468.96 40.926H1465.72V40.27H1468.96V33.3H1469.61V40.27H1474.53V33.3H1475.19V40.27H1478.43V40.926H1475.19V45.846H1478.43V46.502H1475.19V62H1474.53V46.502H1469.61V62H1468.96V46.502H1465.72V45.846H1468.96V40.926ZM1474.53 40.926H1469.61V45.846H1474.53V40.926ZM1480.42 46.953C1480.42 42.976 1483.61 39.778 1487.59 39.778C1490.54 39.778 1493.09 41.582 1494.19 44.124L1493.58 44.411C1492.59 42.074 1490.26 40.434 1487.59 40.434C1483.98 40.434 1481.07 43.345 1481.07 46.953C1481.07 50.028 1483.16 52.57 1486.03 53.308L1487.84 53.759C1488.53 53.923 1489.03 54.579 1489.03 55.317C1489.03 56.219 1488.33 56.916 1487.43 56.916C1486.73 56.916 1486.16 56.506 1485.91 55.85L1486.53 55.604C1486.65 55.973 1486.98 56.26 1487.43 56.26C1487.96 56.26 1488.37 55.85 1488.37 55.317C1488.37 54.866 1488.12 54.497 1487.67 54.374L1485.83 53.923C1482.71 53.144 1480.42 50.315 1480.42 46.953ZM1480.83 58.187L1481.44 57.9C1482.43 60.237 1484.72 61.836 1487.43 61.836C1491.04 61.836 1493.95 58.925 1493.95 55.317C1493.95 52.242 1491.86 49.7 1488.99 48.962L1487.18 48.511C1486.44 48.306 1485.99 47.691 1485.99 46.953C1485.99 46.051 1486.69 45.354 1487.59 45.354C1488.29 45.354 1488.86 45.805 1489.07 46.42L1488.49 46.666C1488.37 46.297 1488 46.01 1487.59 46.01C1487.06 46.01 1486.65 46.42 1486.65 46.953C1486.65 47.404 1486.89 47.773 1487.35 47.896L1489.19 48.347C1492.35 49.126 1494.6 51.955 1494.6 55.317C1494.6 59.294 1491.4 62.492 1487.43 62.492C1484.48 62.492 1481.93 60.729 1480.83 58.187ZM1512.53 44.534V33.3H1513.19V44.534H1524.01V33.3H1524.67V44.534H1529.59V33.3H1530.25V62H1529.59V50.766H1524.67V62H1524.01V50.766H1513.19V62H1512.53V50.766H1507.61V62H1506.96V33.3H1507.61V44.534H1512.53ZM1524.01 45.19H1513.19V50.11H1524.01V45.19ZM1512.53 50.11V45.19H1507.61V50.11H1512.53ZM1529.59 50.11V45.19H1524.67V50.11H1529.59ZM1550.44 42.115V60.155C1553.19 58.474 1555.36 55.071 1555.36 51.135C1555.36 47.199 1553.19 43.796 1550.44 42.115ZM1544.66 39.778C1546.5 39.778 1548.23 40.229 1549.78 41.008V40.27H1550.44V41.377C1552.74 42.648 1554.5 44.944 1555.36 47.322V40.27H1556.02V62H1555.36V54.907C1554.54 57.244 1552.74 59.663 1550.44 60.934V62H1549.78V61.262C1548.23 62.041 1546.5 62.492 1544.66 62.492C1538.39 62.492 1533.3 57.408 1533.3 51.135C1533.3 44.862 1538.39 39.778 1544.66 39.778ZM1544.66 61.836C1546.5 61.836 1548.27 61.385 1549.78 60.565V53.841C1548.8 55.645 1546.87 56.916 1544.66 56.916C1541.46 56.916 1538.88 54.333 1538.88 51.135C1538.88 47.937 1541.46 45.354 1544.66 45.354C1546.87 45.354 1548.8 46.625 1549.78 48.47V41.746C1548.27 40.926 1546.5 40.434 1544.66 40.434C1538.75 40.434 1533.96 45.231 1533.96 51.135C1533.96 57.039 1538.75 61.836 1544.66 61.836ZM1544.66 56.26C1547.53 56.26 1549.78 53.964 1549.78 51.135C1549.78 48.306 1547.53 46.01 1544.66 46.01C1541.83 46.01 1539.53 48.306 1539.53 51.135C1539.53 53.964 1541.83 56.26 1544.66 56.26ZM1565.77 60.155V42.115C1563.03 43.796 1560.85 47.199 1560.85 51.135C1560.85 55.071 1563.03 58.474 1565.77 60.155ZM1571.55 62.492C1569.71 62.492 1567.99 62.041 1566.43 61.262V71.02H1565.77V60.893C1563.48 59.622 1561.67 57.285 1560.85 54.948V71.02H1560.2V40.27H1560.85V47.363C1561.67 44.985 1563.48 42.607 1565.77 41.336V40.27H1566.43V41.008C1567.99 40.229 1569.71 39.778 1571.55 39.778C1577.83 39.778 1582.91 44.862 1582.91 51.135C1582.91 57.408 1577.83 62.492 1571.55 62.492ZM1571.55 56.916C1569.34 56.916 1567.41 55.645 1566.43 53.8V60.524C1567.95 61.344 1569.71 61.836 1571.55 61.836C1577.46 61.836 1582.25 57.039 1582.25 51.135C1582.25 45.231 1577.46 40.434 1571.55 40.434C1569.71 40.434 1567.95 40.885 1566.43 41.705V48.429C1567.41 46.625 1569.34 45.354 1571.55 45.354C1574.75 45.354 1577.33 47.937 1577.33 51.135C1577.33 54.333 1574.75 56.916 1571.55 56.916ZM1571.55 46.01C1568.68 46.01 1566.43 48.306 1566.43 51.135C1566.43 53.964 1568.68 56.26 1571.55 56.26C1574.38 56.26 1576.68 53.964 1576.68 51.135C1576.68 48.306 1574.38 46.01 1571.55 46.01ZM1591.44 60.155V42.115C1588.69 43.796 1586.52 47.199 1586.52 51.135C1586.52 55.071 1588.69 58.474 1591.44 60.155ZM1597.22 62.492C1595.37 62.492 1593.65 62.041 1592.09 61.262V71.02H1591.44V60.893C1589.14 59.622 1587.34 57.285 1586.52 54.948V71.02H1585.86V40.27H1586.52V47.363C1587.34 44.985 1589.14 42.607 1591.44 41.336V40.27H1592.09V41.008C1593.65 40.229 1595.37 39.778 1597.22 39.778C1603.49 39.778 1608.58 44.862 1608.58 51.135C1608.58 57.408 1603.49 62.492 1597.22 62.492ZM1597.22 56.916C1595 56.916 1593.08 55.645 1592.09 53.8V60.524C1593.61 61.344 1595.37 61.836 1597.22 61.836C1603.12 61.836 1607.92 57.039 1607.92 51.135C1607.92 45.231 1603.12 40.434 1597.22 40.434C1595.37 40.434 1593.61 40.885 1592.09 41.705V48.429C1593.08 46.625 1595 45.354 1597.22 45.354C1600.42 45.354 1603 47.937 1603 51.135C1603 54.333 1600.42 56.916 1597.22 56.916ZM1597.22 46.01C1594.35 46.01 1592.09 48.306 1592.09 51.135C1592.09 53.964 1594.35 56.26 1597.22 56.26C1600.05 56.26 1602.34 53.964 1602.34 51.135C1602.34 48.306 1600.05 46.01 1597.22 46.01ZM1632.14 40.27L1617.96 71.02H1617.26L1619.8 65.526L1616.93 59.376L1611.56 71.02H1610.86L1616.6 58.597L1608.03 40.27H1608.73L1616.93 57.859L1619.76 51.75L1614.43 40.27H1615.13L1620.13 50.971L1625.05 40.27H1625.75L1620.46 51.709L1623.33 57.859L1631.45 40.27H1632.14ZM1620.17 64.747L1623 58.638L1620.13 52.488L1617.3 58.638L1620.17 64.747ZM1646.31 33.956H1640.44V33.3H1658.4V33.956H1652.54V38.876H1658.4V39.532H1652.54V62H1651.88V39.532H1646.96V62H1646.31V39.532H1640.44V38.876H1646.31V33.956ZM1651.88 33.956H1646.96V38.876H1651.88V33.956ZM1660.9 62V31.25H1661.55V46.461C1662.45 44.124 1664.22 42.197 1666.47 41.09V31.25H1667.13V40.762C1668.28 40.311 1669.51 40.065 1670.82 40.065C1676.27 40.065 1680.74 44.534 1680.74 49.987V62H1680.08V49.987C1680.08 44.903 1675.9 40.721 1670.82 40.721C1669.51 40.721 1668.28 41.008 1667.13 41.5V47.691C1667.91 46.461 1669.26 45.641 1670.82 45.641C1673.2 45.641 1675.16 47.609 1675.16 49.987V62H1674.51V49.987C1674.51 47.978 1672.83 46.297 1670.82 46.297C1668.81 46.297 1667.13 47.978 1667.13 49.987V62H1666.47V41.828C1663.56 43.386 1661.55 46.461 1661.55 49.987V62H1660.9ZM1694.73 62.492C1688.45 62.492 1683.37 57.408 1683.37 51.135C1683.37 44.862 1688.45 39.778 1694.73 39.778C1701 39.778 1706.08 44.862 1706.08 51.135C1706.08 57.408 1701 62.492 1694.73 62.492ZM1694.73 61.836C1700.63 61.836 1705.43 57.039 1705.43 51.135C1705.43 45.231 1700.63 40.434 1694.73 40.434C1688.82 40.434 1684.02 45.231 1684.02 51.135C1684.02 57.039 1688.82 61.836 1694.73 61.836ZM1694.73 56.916C1691.53 56.916 1688.94 54.333 1688.94 51.135C1688.94 47.937 1691.53 45.354 1694.73 45.354C1697.92 45.354 1700.51 47.937 1700.51 51.135C1700.51 54.333 1697.92 56.916 1694.73 56.916ZM1694.73 56.26C1697.55 56.26 1699.85 53.964 1699.85 51.135C1699.85 48.306 1697.55 46.01 1694.73 46.01C1691.9 46.01 1689.6 48.306 1689.6 51.135C1689.6 53.964 1691.9 56.26 1694.73 56.26ZM1728.54 40.27V62H1727.88V55.809C1726.98 58.146 1725.22 60.073 1722.96 61.18V62H1722.31V61.508C1721.16 61.959 1719.93 62.205 1718.62 62.205C1713.16 62.205 1708.69 57.736 1708.69 52.283V40.27H1709.35V52.283C1709.35 57.367 1713.53 61.549 1718.62 61.549C1719.93 61.549 1721.16 61.262 1722.31 60.77V54.579C1721.53 55.809 1720.17 56.629 1718.62 56.629C1716.24 56.629 1714.27 54.661 1714.27 52.283V40.27H1714.93V52.283C1714.93 54.292 1716.61 55.973 1718.62 55.973C1720.63 55.973 1722.31 54.292 1722.31 52.283V40.27H1722.96V60.442C1725.87 58.884 1727.88 55.809 1727.88 52.283V40.27H1728.54ZM1731.54 51.135C1731.54 44.862 1736.62 39.778 1742.89 39.778C1744.74 39.778 1746.46 40.229 1748.02 41.008V40.27H1748.67V41.377C1750.97 42.648 1752.73 44.944 1753.59 47.322V40.27H1754.25V60.155C1754.25 66.428 1749.21 71.512 1742.89 71.512C1739 71.512 1735.55 69.503 1733.46 66.51L1734.04 66.182C1736.01 69.011 1739.24 70.856 1742.89 70.856C1748.88 70.856 1753.59 66.1 1753.59 60.155V54.907C1752.77 57.285 1750.93 59.663 1748.59 60.934C1748.18 63.722 1745.85 65.936 1742.89 65.936C1741.05 65.936 1739.37 65.034 1738.3 63.722L1738.88 63.394C1739.78 64.501 1741.29 65.28 1742.89 65.28C1745.35 65.28 1747.36 63.599 1747.9 61.344C1746.38 62.041 1744.66 62.492 1742.89 62.492C1736.62 62.492 1731.54 57.408 1731.54 51.135ZM1732.19 51.135C1732.19 57.039 1736.99 61.836 1742.89 61.836C1744.74 61.836 1746.46 61.385 1747.98 60.565C1748.02 60.278 1748.02 59.745 1748.02 59.212V53.841C1747.03 55.645 1745.11 56.916 1742.89 56.916C1739.7 56.916 1737.11 54.333 1737.11 51.135C1737.11 47.937 1739.7 45.354 1742.89 45.354C1745.11 45.354 1747.03 46.625 1748.02 48.47V41.746C1746.5 40.926 1744.74 40.434 1742.89 40.434C1736.99 40.434 1732.19 45.231 1732.19 51.135ZM1737.77 51.135C1737.77 53.964 1740.06 56.26 1742.89 56.26C1745.76 56.26 1748.02 53.964 1748.02 51.135C1748.02 48.306 1745.76 46.01 1742.89 46.01C1740.06 46.01 1737.77 48.306 1737.77 51.135ZM1748.67 42.115V60.155C1751.42 58.474 1753.59 55.071 1753.59 51.135C1753.59 47.199 1751.42 43.796 1748.67 42.115ZM1758.39 62V31.25H1759.05V46.461C1759.95 44.124 1761.71 42.197 1763.97 41.09V31.25H1764.62V40.762C1765.77 40.311 1767 40.065 1768.31 40.065C1773.77 40.065 1778.23 44.534 1778.23 49.987V62H1777.58V49.987C1777.58 44.903 1773.4 40.721 1768.31 40.721C1767 40.721 1765.77 41.008 1764.62 41.5V47.691C1765.4 46.461 1766.75 45.641 1768.31 45.641C1770.69 45.641 1772.66 47.609 1772.66 49.987V62H1772V49.987C1772 47.978 1770.32 46.297 1768.31 46.297C1766.3 46.297 1764.62 47.978 1764.62 49.987V62H1763.97V41.828C1761.06 43.386 1759.05 46.461 1759.05 49.987V62H1758.39ZM1783.74 40.926H1780.5V40.27H1783.74V33.3H1784.4V40.27H1789.32V33.3H1789.98V40.27H1793.21V40.926H1789.98V45.846H1793.21V46.502H1789.98V62H1789.32V46.502H1784.4V62H1783.74V46.502H1780.5V45.846H1783.74V40.926ZM1789.32 40.926H1784.4V45.846H1789.32V40.926ZM1795.2 46.953C1795.2 42.976 1798.4 39.778 1802.38 39.778C1805.33 39.778 1807.87 41.582 1808.98 44.124L1808.36 44.411C1807.38 42.074 1805.04 40.434 1802.38 40.434C1798.77 40.434 1795.86 43.345 1795.86 46.953C1795.86 50.028 1797.95 52.57 1800.82 53.308L1802.62 53.759C1803.32 53.923 1803.81 54.579 1803.81 55.317C1803.81 56.219 1803.12 56.916 1802.21 56.916C1801.52 56.916 1800.94 56.506 1800.7 55.85L1801.31 55.604C1801.44 55.973 1801.76 56.26 1802.21 56.26C1802.75 56.26 1803.16 55.85 1803.16 55.317C1803.16 54.866 1802.91 54.497 1802.46 54.374L1800.62 53.923C1797.5 53.144 1795.2 50.315 1795.2 46.953ZM1795.61 58.187L1796.23 57.9C1797.21 60.237 1799.51 61.836 1802.21 61.836C1805.82 61.836 1808.73 58.925 1808.73 55.317C1808.73 52.242 1806.64 49.7 1803.77 48.962L1801.97 48.511C1801.23 48.306 1800.78 47.691 1800.78 46.953C1800.78 46.051 1801.48 45.354 1802.38 45.354C1803.08 45.354 1803.65 45.805 1803.85 46.42L1803.28 46.666C1803.16 46.297 1802.79 46.01 1802.38 46.01C1801.85 46.01 1801.44 46.42 1801.44 46.953C1801.44 47.404 1801.68 47.773 1802.13 47.896L1803.98 48.347C1807.13 49.126 1809.39 51.955 1809.39 55.317C1809.39 59.294 1806.19 62.492 1802.21 62.492C1799.26 62.492 1796.72 60.729 1795.61 58.187ZM1827.32 44.534V33.3H1827.98V44.534H1838.8V33.3H1839.46V44.534H1844.38V33.3H1845.03V62H1844.38V50.766H1839.46V62H1838.8V50.766H1827.98V62H1827.32V50.766H1822.4V62H1821.74V33.3H1822.4V44.534H1827.32ZM1838.8 45.19H1827.98V50.11H1838.8V45.19ZM1827.32 50.11V45.19H1822.4V50.11H1827.32ZM1844.38 50.11V45.19H1839.46V50.11H1844.38ZM1865.23 42.115V60.155C1867.97 58.474 1870.15 55.071 1870.15 51.135C1870.15 47.199 1867.97 43.796 1865.23 42.115ZM1859.45 39.778C1861.29 39.778 1863.01 40.229 1864.57 41.008V40.27H1865.23V41.377C1867.52 42.648 1869.29 44.944 1870.15 47.322V40.27H1870.8V62H1870.15V54.907C1869.33 57.244 1867.52 59.663 1865.23 60.934V62H1864.57V61.262C1863.01 62.041 1861.29 62.492 1859.45 62.492C1853.17 62.492 1848.09 57.408 1848.09 51.135C1848.09 44.862 1853.17 39.778 1859.45 39.778ZM1859.45 61.836C1861.29 61.836 1863.05 61.385 1864.57 60.565V53.841C1863.59 55.645 1861.66 56.916 1859.45 56.916C1856.25 56.916 1853.67 54.333 1853.67 51.135C1853.67 47.937 1856.25 45.354 1859.45 45.354C1861.66 45.354 1863.59 46.625 1864.57 48.47V41.746C1863.05 40.926 1861.29 40.434 1859.45 40.434C1853.54 40.434 1848.75 45.231 1848.75 51.135C1848.75 57.039 1853.54 61.836 1859.45 61.836ZM1859.45 56.26C1862.32 56.26 1864.57 53.964 1864.57 51.135C1864.57 48.306 1862.32 46.01 1859.45 46.01C1856.62 46.01 1854.32 48.306 1854.32 51.135C1854.32 53.964 1856.62 56.26 1859.45 56.26ZM1880.56 60.155V42.115C1877.81 43.796 1875.64 47.199 1875.64 51.135C1875.64 55.071 1877.81 58.474 1880.56 60.155ZM1886.34 62.492C1884.5 62.492 1882.77 62.041 1881.22 61.262V71.02H1880.56V60.893C1878.26 59.622 1876.46 57.285 1875.64 54.948V71.02H1874.98V40.27H1875.64V47.363C1876.46 44.985 1878.26 42.607 1880.56 41.336V40.27H1881.22V41.008C1882.77 40.229 1884.5 39.778 1886.34 39.778C1892.61 39.778 1897.7 44.862 1897.7 51.135C1897.7 57.408 1892.61 62.492 1886.34 62.492ZM1886.34 56.916C1884.13 56.916 1882.2 55.645 1881.22 53.8V60.524C1882.73 61.344 1884.5 61.836 1886.34 61.836C1892.25 61.836 1897.04 57.039 1897.04 51.135C1897.04 45.231 1892.25 40.434 1886.34 40.434C1884.5 40.434 1882.73 40.885 1881.22 41.705V48.429C1882.2 46.625 1884.13 45.354 1886.34 45.354C1889.54 45.354 1892.12 47.937 1892.12 51.135C1892.12 54.333 1889.54 56.916 1886.34 56.916ZM1886.34 46.01C1883.47 46.01 1881.22 48.306 1881.22 51.135C1881.22 53.964 1883.47 56.26 1886.34 56.26C1889.17 56.26 1891.47 53.964 1891.47 51.135C1891.47 48.306 1889.17 46.01 1886.34 46.01ZM1906.23 60.155V42.115C1903.48 43.796 1901.31 47.199 1901.31 51.135C1901.31 55.071 1903.48 58.474 1906.23 60.155ZM1912.01 62.492C1910.16 62.492 1908.44 62.041 1906.88 61.262V71.02H1906.23V60.893C1903.93 59.622 1902.13 57.285 1901.31 54.948V71.02H1900.65V40.27H1901.31V47.363C1902.13 44.985 1903.93 42.607 1906.23 41.336V40.27H1906.88V41.008C1908.44 40.229 1910.16 39.778 1912.01 39.778C1918.28 39.778 1923.36 44.862 1923.36 51.135C1923.36 57.408 1918.28 62.492 1912.01 62.492ZM1912.01 56.916C1909.79 56.916 1907.87 55.645 1906.88 53.8V60.524C1908.4 61.344 1910.16 61.836 1912.01 61.836C1917.91 61.836 1922.71 57.039 1922.71 51.135C1922.71 45.231 1917.91 40.434 1912.01 40.434C1910.16 40.434 1908.4 40.885 1906.88 41.705V48.429C1907.87 46.625 1909.79 45.354 1912.01 45.354C1915.2 45.354 1917.79 47.937 1917.79 51.135C1917.79 54.333 1915.2 56.916 1912.01 56.916ZM1912.01 46.01C1909.14 46.01 1906.88 48.306 1906.88 51.135C1906.88 53.964 1909.14 56.26 1912.01 56.26C1914.84 56.26 1917.13 53.964 1917.13 51.135C1917.13 48.306 1914.84 46.01 1912.01 46.01ZM1946.93 40.27L1932.74 71.02H1932.05L1934.59 65.526L1931.72 59.376L1926.35 71.02H1925.65L1931.39 58.597L1922.82 40.27H1923.52L1931.72 57.859L1934.55 51.75L1929.22 40.27H1929.91L1934.92 50.971L1939.84 40.27H1940.53L1935.24 51.709L1938.11 57.859L1946.23 40.27H1946.93ZM1934.96 64.747L1937.79 58.638L1934.92 52.488L1932.09 58.638L1934.96 64.747ZM1979.15 53.554H1957.42V52.898H1979.15V53.554ZM1979.15 49.372H1957.42V48.716H1979.15V49.372ZM1979.15 45.19H1957.42V44.534H1979.15V45.19ZM1979.15 57.736H1957.42V57.08H1979.15V57.736Z" fill="white"/>
</g>
<defs>
<clipPath id="clip0_443_857">
<rect width="1940" height="343" fill="white"/>
</clipPath>
</defs>
</svg>
